<svg width="459" height="296" viewBox="0 0 459 296" fill="grey" xmlns="http://www.w3.org/2000/svg">
<path d="M113.011 0C136.644 0 155.859 19.3063 155.859 43.0524C155.859 66.7985 136.644 86.1048 113.011 86.1048C89.3778 86.1048 70.1632 66.7985 70.1632 43.0524C70.1632 19.3063 89.3778 0 113.011 0ZM457.065 294.034C456.09 294.858 454.858 295.31 453.584 295.312H5.35597C2.41019 295.312 0 292.891 0 289.931C0 288.653 0.468652 287.442 1.27205 286.433L115.287 150.549C117.162 148.262 120.576 147.993 122.853 149.876C123.053 150.078 123.321 150.28 123.522 150.549L190.07 229.927L295.917 103.797C297.792 101.509 301.206 101.24 303.483 103.124C303.684 103.326 303.951 103.528 304.152 103.797L457.869 286.5C459.609 288.72 459.341 292.151 457.065 294.034Z" fill="grey"/>
</svg>
